<?xml version="1.0" encoding="utf-8"?>
<!-- Generator: Adobe Illustrator 24.0.1, SVG Export Plug-In . SVG Version: 6.00 Build 0)  -->
<svg version="1.1" id="Layer_1" xmlns="http://www.w3.org/2000/svg" xmlns:xlink="http://www.w3.org/1999/xlink" x="0px" y="0px"
	 viewBox="0 0 100 100" style="enable-background:new 0 0 100 100;" xml:space="preserve">
<style type="text/css">
	.st0{display:none;fill:#65C1D6;}
	.st1{opacity:0.62;fill:#229399;}
	.st2{fill:#229399;}
	.st3{opacity:0.85;fill:#229399;}
	.st4{opacity:0.75;fill:#229399;}
	.st5{clip-path:url(#SVGID_2_);fill:#229399;}
	.st6{opacity:0.59;fill:#229399;}
</style>
<g>
	<path class="st0" d="M-262.03-59.23c-1.34-1.18-3.17-1.78-5.45-1.78h-7.24c-0.18,0-0.33,0.15-0.33,0.33v21.27
		c0,0.18,0.15,0.33,0.33,0.33h1.8c0.18,0,0.33-0.15,0.33-0.33v-8.33h5.08c2.41,0,4.28-0.58,5.57-1.71c1.3-1.14,1.96-2.79,1.96-4.87
		C-260-56.39-260.68-58.04-262.03-59.23L-262.03-59.23z M-263.72-51.08c-0.85,0.77-2.12,1.16-3.77,1.16h-5.12v-8.91h5.23
		c1.58,0.02,2.81,0.44,3.66,1.25c0.87,0.86,1.33,2.06,1.27,3.28C-262.38-53.09-262.84-51.91-263.72-51.08L-263.72-51.08z
		 M-263.72-51.08"/>
	<path class="st0" d="M-283.98-45.05l2.13,5.76c0.05,0.13,0.17,0.22,0.31,0.22h1.87c0.23,0,0.39-0.23,0.31-0.45l-8.05-21.27
		c-0.05-0.13-0.17-0.21-0.31-0.21h-1.71c-0.14,0-0.26,0.08-0.31,0.21l-8.05,21.27c-0.08,0.22,0.08,0.45,0.31,0.45h1.88
		c0.14,0,0.26-0.09,0.31-0.22l2.11-5.76H-283.98z M-288.59-57.53l3.79,10.3h-7.58L-288.59-57.53z M-288.59-57.53"/>
	<path class="st1" d="M-346.59-58.64h1.71c0.17,0,0.31,0.14,0.31,0.31v20.27c0,0.17-0.14,0.31-0.31,0.31h-1.71
		c-0.17,0-0.31-0.14-0.31-0.31v-20.27C-346.91-58.5-346.77-58.64-346.59-58.64L-346.59-58.64z M-346.59-58.64"/>
	<path class="st1" d="M-359.31-58.64h1.71c0.17,0,0.31,0.14,0.31,0.31v20.27c0,0.17-0.14,0.31-0.31,0.31h-1.71
		c-0.17,0-0.31-0.14-0.31-0.31v-20.27C-359.62-58.5-359.48-58.64-359.31-58.64L-359.31-58.64z M-359.31-58.64"/>
	<path class="st1" d="M-372.32-58.64h1.71c0.17,0,0.31,0.14,0.31,0.31v20.27c0,0.17-0.14,0.31-0.31,0.31h-1.71
		c-0.17,0-0.31-0.14-0.31-0.31v-20.27C-372.64-58.5-372.5-58.64-372.32-58.64L-372.32-58.64z M-372.32-58.64"/>
	<path class="st2" d="M-357.22-64.9h-3.04c-1.13,0-2.11-0.76-2.4-1.86l-0.68-2.63l-2.34,1.38c-0.97,0.57-2.21,0.42-3.01-0.38
		l-2.15-2.15c-0.8-0.8-0.96-2.04-0.38-3.01l1.38-2.34l-2.63-0.68c-1.09-0.28-1.86-1.27-1.86-2.4V-82c0-1.13,0.76-2.11,1.86-2.4
		l2.63-0.68l-1.38-2.34c-0.57-0.97-0.42-2.21,0.38-3.01l2.15-2.15c0.8-0.8,2.04-0.96,3.01-0.38l2.34,1.38l0.68-2.63
		c0.28-1.09,1.27-1.86,2.4-1.86h3.04c1.13,0,2.11,0.76,2.4,1.86l0.68,2.63l2.34-1.38c0.97-0.57,2.21-0.42,3.01,0.38l2.15,2.15
		c0.8,0.8,0.96,2.04,0.38,3.01l-1.38,2.34l2.63,0.68c1.09,0.28,1.85,1.27,1.86,2.4v3.04c0,1.13-0.76,2.11-1.86,2.4l-2.63,0.68
		l1.38,2.34c0.57,0.97,0.42,2.21-0.38,3.01l-2.15,2.15c-0.8,0.8-2.03,0.96-3.01,0.38l-2.34-1.38l-0.68,2.63
		C-355.11-65.66-356.09-64.9-357.22-64.9L-357.22-64.9z M-362.61-72.26c0.52,0,0.97,0.35,1.1,0.85l1.05,4.09
		c0.02,0.09,0.11,0.15,0.2,0.15h3.04c0.09,0,0.18-0.06,0.2-0.15l1.05-4.09c0.19-0.73,1.03-1.08,1.68-0.7l3.64,2.15
		c0.08,0.05,0.18,0.03,0.25-0.03l2.15-2.15c0.07-0.07,0.08-0.17,0.03-0.25l-2.15-3.64c-0.38-0.65-0.04-1.49,0.69-1.68l4.09-1.05
		c0.09-0.02,0.15-0.11,0.15-0.2V-82c0-0.09-0.06-0.18-0.15-0.2l-4.09-1.05c-0.73-0.19-1.08-1.03-0.69-1.68l2.15-3.64
		c0.05-0.08,0.03-0.18-0.03-0.25l-2.15-2.15c-0.07-0.07-0.17-0.08-0.25-0.03l-3.64,2.15c-0.65,0.38-1.49,0.04-1.68-0.7l-1.05-4.09
		c-0.02-0.09-0.11-0.15-0.2-0.15h-3.04c-0.09,0-0.18,0.06-0.2,0.15l-1.05,4.09c-0.19,0.73-1.03,1.08-1.68,0.7l-3.64-2.15
		c-0.08-0.05-0.18-0.03-0.25,0.03l-2.15,2.15c-0.07,0.07-0.08,0.17-0.03,0.25l2.15,3.64c0.38,0.65,0.04,1.49-0.69,1.68l-4.09,1.05
		c-0.09,0.02-0.15,0.11-0.15,0.2v3.04c0,0.09,0.06,0.18,0.15,0.2l4.09,1.05c0.73,0.19,1.08,1.03,0.69,1.68l-2.15,3.64
		c-0.05,0.08-0.03,0.18,0.03,0.25l2.15,2.15c0.07,0.07,0.17,0.08,0.25,0.03l3.64-2.15C-363.02-72.21-362.82-72.26-362.61-72.26
		L-362.61-72.26z M-362.61-72.26"/>
	<path class="st1" d="M-358.74-74.68c-2.34,0-4.46-1.41-5.35-3.58c-0.9-2.16-0.4-4.66,1.26-6.32c1.66-1.66,4.15-2.15,6.32-1.26
		c2.16,0.9,3.58,3.01,3.58,5.35C-352.95-77.28-355.54-74.68-358.74-74.68L-358.74-74.68z M-358.74-84c-1.43,0-2.71,0.86-3.26,2.18
		c-0.55,1.32-0.24,2.83,0.76,3.84c1.01,1.01,2.52,1.31,3.84,0.76c1.32-0.55,2.18-1.83,2.18-3.26C-355.22-82.42-356.8-84-358.74-84
		L-358.74-84z M-358.74-84"/>
	<path class="st2" d="M-358.74,1.16c-6.3,0-11.98-3.8-14.39-9.62c-2.41-5.82-1.08-12.52,3.38-16.98c4.46-4.45,11.16-5.79,16.98-3.38
		c5.82,2.41,9.62,8.09,9.62,14.39C-343.17-5.82-350.14,1.15-358.74,1.16L-358.74,1.16z M-358.74-27.73
		c-5.38,0-10.23,3.24-12.29,8.21c-2.06,4.97-0.92,10.7,2.89,14.5c3.81,3.81,9.53,4.94,14.5,2.88c4.97-2.06,8.21-6.91,8.21-12.29
		C-345.44-21.77-351.4-27.72-358.74-27.73L-358.74-27.73z M-358.74-27.73"/>
	<path class="st2" d="M-326.61-70.08l-13.57-7.83c-0.54-0.32-1.24-0.13-1.56,0.41c-0.32,0.55-0.13,1.24,0.42,1.56l13,7.5v35.15
		l-14.53,8.39c-0.55,0.31-0.74,1.01-0.42,1.56c0.32,0.54,1.01,0.73,1.56,0.41l15.1-8.71c0.35-0.2,0.57-0.58,0.57-0.98V-69.1
		C-326.04-69.51-326.25-69.88-326.61-70.08L-326.61-70.08z M-326.61-70.08"/>
	<path class="st2" d="M-374.73-24.96l-14.44-8.34v-35.15l12.85-7.42c1.3-0.76,0.17-2.71-1.14-1.97l-13.42,7.75
		c-0.35,0.2-0.57,0.58-0.57,0.98v36.45c0,0.41,0.22,0.78,0.57,0.98l15.01,8.67c0.54,0.32,1.24,0.13,1.56-0.41
		C-374-23.95-374.19-24.65-374.73-24.96L-374.73-24.96z M-374.73-24.96"/>
	<path class="st1" d="M-359.64-12.73l-2.7,2.7v-11.56c0-1.51-2.27-1.51-2.27,0v11.56l-2.7-2.7c-1.07-1.03-2.64,0.54-1.6,1.61
		l4.64,4.64c0.44,0.44,1.16,0.44,1.6,0l4.64-4.64C-357-12.19-358.57-13.76-359.64-12.73L-359.64-12.73z M-359.64-12.73"/>
	<path class="st1" d="M-353.21-22.38c-0.44-0.44-1.16-0.44-1.6,0l-4.64,4.64c-1.06,1.07,0.54,2.67,1.61,1.6l2.7-2.7v11.56
		c0,1.51,2.27,1.51,2.27,0v-11.56l2.7,2.7c1.07,1.03,2.64-0.53,1.61-1.6L-353.21-22.38z M-353.21-22.38"/>
</g>
<g>
	<path class="st2" d="M-324.03,89.79h-1.96V39.71c0-1.29-1.04-2.33-2.33-2.33h-12.06c-1.29,0-2.33,1.04-2.33,2.33v50.08h-5.73V57.14
		c0-1.29-1.04-2.33-2.33-2.33h-12.06c-1.29,0-2.33,1.04-2.33,2.33v32.65h-5.73V52.86c0-1.29-1.04-2.33-2.33-2.33h-12.06
		c-1.29,0-2.33,1.04-2.33,2.33v36.93h-1.96c-1.29,0-2.33,1.04-2.33,2.33c0,1.29,1.04,2.33,2.33,2.33h65.51
		c1.29,0,2.33-1.04,2.33-2.33C-321.71,90.83-322.75,89.79-324.03,89.79L-324.03,89.79z M-338.05,42.04h7.4v47.76h-7.4V42.04z
		 M-360.49,59.47h7.4v30.33h-7.4V59.47z M-382.93,55.19h7.4v34.6h-7.4V55.19z M-382.93,55.19"/>
	<path class="st3" d="M-375.63,43.66c0.07,0,0.14,0,0.21-0.01c0.21-0.02,5.23-0.48,12.36-3.01c6.54-2.32,16.21-6.9,25.09-15.58
		c0.04-0.04,0.08-0.09,0.12-0.13v3.58c0,1.29,1.04,2.33,2.33,2.33c1.29,0,2.33-1.04,2.33-2.33v-9.19c0-1.29-1.04-2.33-2.33-2.33
		h-9.19c-1.29,0-2.33,1.04-2.33,2.33c0,1.29,1.04,2.33,2.33,2.33h3.58c-0.03,0.03-0.07,0.05-0.1,0.09c-2.39,2.34-4.85,4.36-7.28,6.1
		c-5.91,4.24-11.66,6.83-15.96,8.37c-0.89,0.32-1.75,0.6-2.57,0.85c-5.23,1.62-8.76,1.95-8.8,1.96c-1.28,0.11-2.22,1.24-2.11,2.52
		C-377.84,42.75-376.82,43.66-375.63,43.66L-375.63,43.66z M-375.63,43.66"/>
</g>
<g>
	<path class="st2" d="M-367.75,148.24h-28.71c-1.13,0-2.05-0.92-2.05-2.05v-7.38c0-5.04,4.09-9.13,9.13-9.13h2.02
		c0.38,0,0.74,0.17,0.98,0.47l4.28,5.26l4.28-5.26c0.24-0.3,0.6-0.47,0.98-0.47h2.02c5.04,0.01,9.12,4.09,9.13,9.13v7.38
		c0,0.54-0.22,1.07-0.61,1.45C-366.68,148.03-367.2,148.24-367.75,148.24L-367.75,148.24z M-395.98,145.71h27.75v-6.9
		c0-3.64-2.95-6.6-6.6-6.61h-1.42l-4.88,6c-0.52,0.59-1.44,0.59-1.96,0l-4.88-6h-1.42c-3.64,0.01-6.6,2.96-6.6,6.61V145.71z
		 M-395.98,145.71"/>
	<path class="st2" d="M-382.1,127.95c-4.87-0.09-8.76-4.1-8.69-8.98c-0.07-2.35,0.81-4.64,2.45-6.33c1.64-1.69,3.89-2.64,6.24-2.64
		c2.35,0,4.61,0.95,6.25,2.64c1.64,1.69,2.52,3.97,2.44,6.33C-373.34,123.85-377.22,127.86-382.1,127.95L-382.1,127.95z
		 M-382.1,112.54c-3.48,0.08-6.24,2.96-6.17,6.43c-0.07,1.68,0.54,3.32,1.71,4.53c1.16,1.21,2.77,1.9,4.45,1.9
		c1.68,0,3.29-0.69,4.45-1.9c1.16-1.21,1.78-2.85,1.71-4.53C-375.87,115.5-378.62,112.62-382.1,112.54L-382.1,112.54z
		 M-382.1,112.54"/>
	<path class="st2" d="M-317.12,148.24h-28.71c-1.13,0-2.05-0.92-2.05-2.05v-7.38c0-5.04,4.09-9.13,9.13-9.13h2.02
		c0.38,0,0.74,0.17,0.98,0.47l4.28,5.26l4.28-5.26c0.24-0.3,0.6-0.47,0.98-0.47h2.02c5.04,0.01,9.11,4.1,9.12,9.13v7.38
		C-315.07,147.32-315.99,148.24-317.12,148.24L-317.12,148.24z M-345.35,145.71h27.75v-6.9c0-3.64-2.95-6.6-6.6-6.61h-1.42l-4.88,6
		c-0.24,0.3-0.6,0.47-0.98,0.47c-0.38,0-0.74-0.17-0.98-0.47l-4.88-6h-1.42c-3.64,0.01-6.6,2.96-6.6,6.61V145.71z M-345.35,145.71"
		/>
	<path class="st2" d="M-331.47,127.95c-4.88-0.09-8.76-4.1-8.69-8.98c-0.07-2.35,0.81-4.64,2.45-6.33c1.64-1.69,3.89-2.64,6.24-2.64
		c2.35,0,4.61,0.95,6.24,2.64c1.64,1.69,2.52,3.97,2.45,6.33C-322.71,123.85-326.6,127.86-331.47,127.95L-331.47,127.95z
		 M-331.47,112.54c-3.48,0.08-6.23,2.96-6.16,6.43c-0.07,1.68,0.54,3.32,1.71,4.53c1.16,1.21,2.77,1.9,4.45,1.9
		c1.68,0,3.29-0.69,4.45-1.9c1.16-1.21,1.78-2.85,1.71-4.53C-325.24,115.5-328,112.62-331.47,112.54L-331.47,112.54z
		 M-331.47,112.54"/>
	<path class="st2" d="M-342.43,193.45h-28.71c-1.13,0-2.05-0.92-2.05-2.05v-7.37c0-5.04,4.09-9.13,9.13-9.14h2.02
		c0.38,0,0.74,0.17,0.98,0.47l4.28,5.26l4.28-5.26c0.24-0.3,0.6-0.47,0.98-0.47h2.02c5.04,0.01,9.12,4.09,9.13,9.14v7.37
		C-340.38,192.53-341.3,193.45-342.43,193.45L-342.43,193.45z M-370.66,190.92h27.75v-6.9c0-3.64-2.95-6.6-6.6-6.61h-1.42l-4.88,6
		c-0.52,0.59-1.44,0.59-1.96,0l-4.88-6h-1.42c-3.64,0.01-6.6,2.96-6.6,6.61V190.92z M-370.66,190.92"/>
	<path class="st2" d="M-356.79,173.15c-3.65,0.12-7.01-2-8.49-5.34c-1.48-3.34-0.78-7.25,1.76-9.88c2.55-2.63,6.43-3.45,9.82-2.07
		c3.39,1.37,5.61,4.66,5.61,8.32C-348.03,169.06-351.91,173.07-356.79,173.15L-356.79,173.15z M-356.79,157.75
		c-2.63-0.12-5.07,1.38-6.16,3.78c-1.09,2.4-0.61,5.22,1.21,7.12c1.82,1.9,4.62,2.51,7.06,1.52c2.44-0.98,4.04-3.35,4.04-5.99
		C-350.55,160.7-353.31,157.83-356.79,157.75L-356.79,157.75z M-356.79,157.75"/>
	<path class="st2" d="M-373.45,174.04c-0.32,0-0.63-0.12-0.87-0.34c-5.64-5.38-8.82-12.84-8.79-20.63c0-0.47,0.01-0.94,0.03-1.4
		c0.04-0.69,0.63-1.23,1.32-1.21c0.7,0.03,1.24,0.63,1.2,1.32c-0.02,0.42-0.03,0.85-0.03,1.28c-0.03,7.09,2.86,13.89,7.99,18.79
		C-371.76,172.64-372.31,174.04-373.45,174.04L-373.45,174.04z M-373.45,174.04"/>
	<path class="st2" d="M-339.75,173.68c-1.13,0-1.7-1.38-0.88-2.17c4.91-4.88,7.65-11.52,7.63-18.44c0-1.69,2.53-1.69,2.53,0
		c0.02,7.6-3,14.89-8.39,20.25C-339.11,173.55-339.42,173.68-339.75,173.68L-339.75,173.68z M-339.75,173.68"/>
	<path class="st2" d="M-347.88,129.67c-0.16,0-0.32-0.03-0.47-0.09c-5.42-2.16-11.46-2.16-16.88,0c-0.65,0.26-1.38-0.05-1.64-0.7
		c-0.26-0.65,0.05-1.38,0.7-1.64c6.03-2.4,12.74-2.4,18.77,0C-346.11,127.75-346.48,129.67-347.88,129.67L-347.88,129.67z
		 M-347.88,129.67"/>
</g>
<g>
	<path class="st3" d="M-400.3,296.61c0,0.85,0.69,1.54,1.54,1.54h24.65c0.85,0,1.54-0.69,1.54-1.54v-15.4
		c0-0.85-0.69-1.54-1.54-1.54h-24.65c-0.85,0-1.54,0.69-1.54,1.54V296.61z M-397.22,282.75h21.57v12.32h-21.57V282.75z
		 M-397.22,282.75"/>
	<path class="st2" d="M-317.11,299.69h-1.82c0.18-0.49,0.28-1.01,0.28-1.54v-18.49c0-2.55-2.07-4.62-4.62-4.62h-12.32v-9.24h-18.49
		v-3.08c0-1.7-1.38-3.08-3.08-3.08v-1.54c-0.01-1.95-1.24-3.69-3.08-4.34v-3.36h15.4c2.55,0,4.62-2.07,4.62-4.62v-3.08
		c0-0.85-0.69-1.54-1.54-1.54h-1.82c0.18-0.49,0.28-1.01,0.28-1.54v-18.49c0-2.55-2.07-4.62-4.62-4.62h-27.73
		c-2.55,0-4.62,2.07-4.62,4.62v18.49c0.01,0.53,0.1,1.05,0.28,1.54h-1.82c-0.85,0-1.54,0.69-1.54,1.54v3.08
		c0,2.55,2.07,4.62,4.62,4.62h15.4v3.36c-1.84,0.65-3.07,2.39-3.08,4.34v1.54c-1.7,0-3.08,1.38-3.08,3.08v3.08h-18.49v9.24h-12.32
		c-2.55,0-4.62,2.07-4.62,4.62v18.49c0.01,0.53,0.1,1.05,0.28,1.54h-1.82c-0.85,0-1.54,0.69-1.54,1.54v3.08
		c0,2.55,2.07,4.62,4.62,4.62h33.89c2.55,0,4.62-2.07,4.62-4.62v-3.08c0-0.85-0.69-1.54-1.54-1.54h-1.82
		c0.18-0.49,0.28-1.01,0.28-1.54v-18.49c0-2.55-2.07-4.62-4.62-4.62h-12.32v-6.16h15.4v3.08c0,1.7,1.38,3.08,3.08,3.08h9.24
		c1.7,0,3.08-1.38,3.08-3.08v-3.08h15.4v6.16H-351c-2.55,0-4.62,2.07-4.62,4.62v18.49c0.01,0.53,0.1,1.05,0.28,1.54h-1.82
		c-0.85,0-1.54,0.69-1.54,1.54v3.08c0,2.55,2.07,4.62,4.62,4.62h33.89c2.55,0,4.62-2.07,4.62-4.62v-3.08
		C-315.57,300.38-316.26,299.69-317.11,299.69L-317.11,299.69z M-377.19,239.62v-18.49c0-0.85,0.69-1.54,1.54-1.54h27.73
		c0.85,0,1.54,0.69,1.54,1.54v18.49c0,0.85-0.69,1.54-1.54,1.54h-27.73C-376.5,241.16-377.19,240.47-377.19,239.62L-377.19,239.62z
		 M-380.27,245.78v-1.54h36.97v1.54c0,0.85-0.69,1.54-1.54,1.54h-33.89C-379.58,247.32-380.27,246.63-380.27,245.78L-380.27,245.78z
		 M-367.95,304.31c0,0.85-0.69,1.54-1.54,1.54h-33.89c-0.85,0-1.54-0.69-1.54-1.54v-1.54h36.97V304.31z M-371.03,279.67v18.49
		c0,0.85-0.69,1.54-1.54,1.54h-27.73c-0.85,0-1.54-0.69-1.54-1.54v-18.49c0-0.85,0.69-1.54,1.54-1.54h27.73
		C-371.72,278.13-371.03,278.82-371.03,279.67L-371.03,279.67z M-363.33,258.1c0-0.85,0.69-1.54,1.54-1.54s1.54,0.69,1.54,1.54v1.54
		h-3.08V258.1z M-366.41,271.97v-9.24h9.24v9.24H-366.41z M-352.54,298.15v-18.49c0-0.85,0.69-1.54,1.54-1.54h27.73
		c0.85,0,1.54,0.69,1.54,1.54v18.49c0,0.85-0.69,1.54-1.54,1.54H-351C-351.85,299.69-352.54,299-352.54,298.15L-352.54,298.15z
		 M-318.66,304.31c0,0.85-0.69,1.54-1.54,1.54h-33.89c-0.85,0-1.54-0.69-1.54-1.54v-1.54h36.97V304.31z M-318.66,304.31"/>
	<path class="st3" d="M-323.28,281.21c0-0.85-0.69-1.54-1.54-1.54h-24.65c-0.85,0-1.54,0.69-1.54,1.54v15.4
		c0,0.85,0.69,1.54,1.54,1.54h24.65c0.85,0,1.54-0.69,1.54-1.54V281.21z M-326.36,295.07h-21.57v-12.32h21.57V295.07z
		 M-326.36,295.07"/>
	<path class="st2" d="M-347.92,222.67c0-0.85-0.69-1.54-1.54-1.54h-24.65c-0.85,0-1.54,0.69-1.54,1.54v15.4
		c0,0.85,0.69,1.54,1.54,1.54h24.65c0.85,0,1.54-0.69,1.54-1.54V222.67z M-351,236.54h-21.57v-12.32H-351V236.54z M-351,236.54"/>
	<rect x="-363.33" y="265.8" class="st2" width="3.08" height="3.08"/>
</g>
<path class="st2" d="M-358.57,343.32c3.49-1.06,7.11-1.63,10.78-1.69c0.01,0,0.02,0,0.02,0c0.21-0.01,0.42-0.01,0.63-0.01
	c6.28,0,12.52,1.53,18.05,4.41c0.05,0.03,0.08,0.08,0.08,0.14c-0.32,9.31-4,18.21-10.38,25.05c-0.49,0.53-0.46,1.36,0.06,1.85
	c0.25,0.24,0.57,0.35,0.89,0.35c0.35,0,0.7-0.14,0.96-0.42c6.81-7.3,10.75-16.8,11.09-26.75c0.04-1.06-0.55-2.06-1.49-2.55
	c-5.9-3.08-12.56-4.71-19.26-4.71c-0.23,0-0.47,0-0.71,0.01c-3.91,0.06-7.78,0.67-11.5,1.81c-0.69,0.21-1.08,0.94-0.87,1.64
	S-359.26,343.53-358.57,343.32z"/>
<path class="st2" d="M-381.38,385.84h-5.65c-0.72,0-1.31,0.59-1.31,1.31v4.44c-2.4,0.59-4.19,2.76-4.19,5.35
	c0,3.04,2.47,5.51,5.51,5.51s5.51-2.47,5.51-5.51c0-2.58-1.79-4.76-4.19-5.35v-3.13h4.34c0.72,0,1.31-0.59,1.31-1.31
	C-380.06,386.43-380.65,385.84-381.38,385.84z M-384.14,396.94c0,1.59-1.29,2.88-2.88,2.88c-1.59,0-2.88-1.29-2.88-2.88
	c0-1.59,1.29-2.88,2.88-2.88C-385.44,394.06-384.14,395.35-384.14,396.94z"/>
<path class="st2" d="M-307.24,391.59v-4.44c0-0.72-0.59-1.31-1.31-1.31h-37.93v-5.53c1.77-1.07,3.48-2.27,5.08-3.59
	c0.56-0.46,0.64-1.29,0.17-1.85c-0.46-0.56-1.29-0.64-1.85-0.17c-1.49,1.23-3.08,2.36-4.74,3.36c-11.09-6.68-18.1-18.3-18.77-31.17
	c0-0.05,0.03-0.11,0.07-0.13c1.01-0.58,2.06-1.12,3.13-1.6c0.66-0.3,0.95-1.08,0.65-1.74c-0.3-0.66-1.08-0.95-1.74-0.65
	c-1.13,0.52-2.26,1.09-3.34,1.71c-0.9,0.51-1.45,1.51-1.39,2.55c0.72,13.76,8.23,26.19,20.1,33.31v5.51h-26.63
	c-0.72,0-1.31,0.59-1.31,1.31c0,0.72,0.59,1.31,1.31,1.31h65.86v3.13c-2.4,0.59-4.19,2.76-4.19,5.35c0,3.04,2.47,5.51,5.51,5.51
	s5.51-2.47,5.51-5.51C-303.04,394.36-304.83,392.18-307.24,391.59z M-308.55,399.83c-1.59,0-2.88-1.29-2.88-2.88
	c0-1.59,1.29-2.88,2.88-2.88s2.88,1.29,2.88,2.88C-305.66,398.53-306.96,399.83-308.55,399.83z"/>
<path class="st2" d="M-347.79,344.19c-3.93,0-7.12,3.2-7.12,7.12v2.03h-0.42c-1,0-1.81,0.81-1.81,1.81v10.64
	c0,1,0.81,1.81,1.81,1.81h15.09c1,0,1.81-0.81,1.81-1.81v-10.64c0-1-0.81-1.81-1.81-1.81h-0.42v-2.03
	C-340.66,347.38-343.86,344.19-347.79,344.19z M-352.29,351.31c0-2.48,2.02-4.5,4.5-4.5s4.5,2.02,4.5,4.5v2.03h-9.01L-352.29,351.31
	L-352.29,351.31z M-341.06,364.97h-13.46v-9.01h13.46V364.97z"/>
<path class="st2" d="M-347.79,356.2c-1.88,0-3.41,1.53-3.41,3.41c0,1.41,0.87,2.63,2.1,3.15v0.67c0,0.72,0.59,1.31,1.31,1.31
	s1.31-0.59,1.31-1.31v-0.67c1.23-0.51,2.1-1.73,2.1-3.15C-344.38,357.73-345.91,356.2-347.79,356.2z M-347.79,358.82
	c0.43,0,0.79,0.35,0.79,0.79c0,0.43-0.35,0.79-0.79,0.79c-0.43,0-0.79-0.35-0.79-0.79C-348.57,359.17-348.22,358.82-347.79,358.82z"
	/>
<path class="st2" d="M-234.29-84.9l-32.85-11.6c-0.42-0.15-0.87-0.15-1.29,0l-32.85,11.6c-0.77,0.27-1.29,1-1.29,1.82v23.19
	c0,30.01,4.45,40.98,33.92,55.84c0.27,0.14,0.57,0.21,0.87,0.21s0.6-0.07,0.87-0.21C-237.45-18.9-233-29.87-233-59.88v-23.19
	C-233-83.9-233.52-84.63-234.29-84.9z M-266.88-12.76c-0.59,0.31-1.34,0.29-1.9-0.05c-0.58-0.35-0.94-0.98-0.94-1.66v-31.89
	c0-1.07-0.86-1.93-1.93-1.93h-21.07c-1.04,0-1.88-0.81-1.93-1.84c-0.13-2.95-0.19-6.16-0.19-9.75v-17.72c0-0.82,0.52-1.55,1.29-1.82
	l25.13-8.87c0.2-0.07,0.42-0.11,0.64-0.11c0.4,0,0.79,0.12,1.12,0.35c0.51,0.36,0.82,0.95,0.82,1.58v32.39
	c0,1.07,0.86,1.93,1.93,1.93h21.07c0.53,0,1.03,0.22,1.4,0.59c0.36,0.38,0.56,0.9,0.53,1.43C-241.81-30.64-246.91-23.3-266.88-12.76
	z"/>
<g>
	<path class="st2" d="M555.11-82.4c-2.04,0-3.69-1.65-3.69-3.69c0-10.35-4.03-20.08-11.35-27.4c-1.44-1.44-1.44-3.77,0-5.22
		c1.44-1.44,3.77-1.44,5.22,0c8.71,8.71,13.51,20.29,13.51,32.61C558.8-84.05,557.15-82.4,555.11-82.4L555.11-82.4z M555.11-82.4"/>
	<path class="st2" d="M481.32-82.4c-2.04,0-3.69-1.65-3.69-3.69c0-12.32,4.8-23.9,13.51-32.61c1.44-1.44,3.77-1.44,5.22,0
		c1.44,1.44,1.44,3.77,0,5.22c-7.32,7.32-11.35,17.05-11.35,27.4C485.01-84.05,483.35-82.4,481.32-82.4L481.32-82.4z M481.32-82.4"
		/>
	<path class="st2" d="M552.82-60.15c-5.58-4.72-8.78-11.61-8.78-18.91v-10.29c0-12.98-9.65-23.73-22.14-25.53v-3.99
		c0-2.04-1.65-3.69-3.69-3.69c-2.04,0-3.69,1.65-3.69,3.69v3.99c-12.5,1.8-22.14,12.55-22.14,25.53v10.29
		c0,7.3-3.2,14.19-8.81,18.94c-1.44,1.23-2.26,3.01-2.26,4.9c0,3.56,2.9,6.46,6.46,6.46h60.88c3.56,0,6.46-2.9,6.46-6.46
		C555.11-57.11,554.29-58.89,552.82-60.15L552.82-60.15z M552.82-60.15"/>
	<path class="st2" d="M518.21-34c6.68,0,12.27-4.76,13.56-11.07h-27.11C505.94-38.76,511.53-34,518.21-34L518.21-34z M518.21-34"/>
</g>
<g>
	<path class="st4" d="M459.19,76.81v9.87c4.95-1.01,8.86-4.92,9.87-9.87H459.19z M459.19,76.81"/>
	<path class="st4" d="M489.74,76.81v9.87c4.95-1.01,8.86-4.92,9.87-9.87H489.74z M489.74,76.81"/>
	<path class="st2" d="M527.89,56.55h-7.6V43.72c0-1.4-1.13-2.53-2.53-2.53h-28.02v-7.77h12.66c1.4,0,2.53-1.13,2.53-2.53v-5.06
		h-35.45v5.06c0,1.4,1.13,2.53,2.53,2.53h12.66v7.77h-28.02c-1.4,0-2.53,1.13-2.53,2.53v12.83h-7.6c-1.4,0-2.53,1.13-2.53,2.53
		v25.32c0,1.4,1.13,2.53,2.53,2.53h7.6V74.28c0-1.4,1.13-2.53,2.53-2.53h12.66V59.08c0-1.4-1.13-2.53-2.53-2.53h-7.6v-10.3h25.49
		v10.3h-7.6c-1.4,0-2.53,1.13-2.53,2.53v25.32c0,1.4,1.13,2.53,2.53,2.53h7.6V74.28c0-1.4,1.13-2.53,2.53-2.53h12.66V59.08
		c0-1.4-1.13-2.53-2.53-2.53h-7.6v-10.3h25.49v10.3h-7.6c-1.4,0-2.53,1.13-2.53,2.53v25.32c0,1.4,1.13,2.53,2.53,2.53h7.6V74.28
		c0-1.4,1.13-2.53,2.53-2.53h12.66V59.08C530.43,57.69,529.29,56.55,527.89,56.55L527.89,56.55z M527.89,56.55"/>
	<path class="st4" d="M530.17,76.81h-9.87v9.87C525.25,85.67,529.16,81.76,530.17,76.81L530.17,76.81z M530.17,76.81"/>
	<rect x="469.49" y="13.17" class="st4" width="35.45" height="7.6"/>
	<path class="st4" d="M504.94,3.04c0-1.4-1.13-2.53-2.53-2.53h-30.39c-1.4,0-2.53,1.13-2.53,2.53v5.06h35.45V3.04z M504.94,3.04"/>
</g>
<g>
	<path class="st2" d="M495.07,194.67h-27.71c-3.6,0-6.52,2.92-6.52,6.52V202c0,1.35,1.09,2.44,2.44,2.44h35.86
		c1.35,0,2.44-1.09,2.44-2.44v-0.81C501.59,197.59,498.67,194.67,495.07,194.67L495.07,194.67z M495.07,194.67"/>
	<path class="st2" d="M439.49,175.6c0,4.94,4.02,8.96,8.96,8.96h19.76l-1.45,5.22h28.89l-1.45-5.22h19.76
		c4.94,0,8.96-4.02,8.96-8.96v-0.81h-83.45V175.6z M439.49,175.6"/>
	<path class="st2" d="M495.88,138.11c-4.04,0-7.33,3.29-7.33,7.33c0,4.04,3.29,7.33,7.33,7.33c4.04,0,7.33-3.29,7.33-7.33
		C503.22,141.4,499.93,138.11,495.88,138.11L495.88,138.11z M495.88,147.89c-1.35,0-2.44-1.09-2.44-2.44c0-1.35,1.09-2.44,2.44-2.44
		c1.35,0,2.44,1.09,2.44,2.44C498.33,146.8,497.23,147.89,495.88,147.89L495.88,147.89z M495.88,147.89"/>
	<path class="st2" d="M513.97,121h-65.52c-4.94,0-8.96,4.02-8.96,8.96v39.93h83.45v-39.93C522.94,125.02,518.92,121,513.97,121
		L513.97,121z M471.43,160.12h-12.22c0,1.35-1.09,2.44-2.44,2.44c-1.35,0-2.44-1.09-2.44-2.44h-2.44c-1.35,0-2.44-1.09-2.44-2.44
		c0-1.35,1.09-2.44,2.44-2.44h2.44c0-1.35,1.09-2.44,2.44-2.44c1.35,0,2.44,1.09,2.44,2.44h12.22c1.35,0,2.44,1.09,2.44,2.44
		C473.88,159.02,472.78,160.12,471.43,160.12L471.43,160.12z M471.43,147.89h-2.44c0,1.35-1.09,2.44-2.44,2.44
		c-1.35,0-2.44-1.09-2.44-2.44h-12.22c-1.35,0-2.44-1.09-2.44-2.44c0-1.35,1.09-2.44,2.44-2.44h12.22c0-1.35,1.09-2.44,2.44-2.44
		c1.35,0,2.44,1.09,2.44,2.44h2.44c1.35,0,2.44,1.09,2.44,2.44C473.88,146.8,472.78,147.89,471.43,147.89L471.43,147.89z
		 M471.43,135.67h-12.22c0,1.35-1.09,2.44-2.44,2.44c-1.35,0-2.44-1.09-2.44-2.44h-2.44c-1.35,0-2.44-1.09-2.44-2.44
		c0-1.35,1.09-2.44,2.44-2.44h2.44c0-1.35,1.09-2.44,2.44-2.44c1.35,0,2.44,1.09,2.44,2.44h12.22c1.35,0,2.44,1.09,2.44,2.44
		C473.88,134.57,472.78,135.67,471.43,135.67L471.43,135.67z M512.99,145.45c0,1.35-1.09,2.44-2.44,2.44h-2.69
		c-0.32,1.56-0.93,3.01-1.78,4.29l1.91,1.91c0.95,0.95,0.95,2.5,0,3.46c-0.95,0.95-2.5,0.95-3.46,0l-1.91-1.91
		c-1.28,0.85-2.73,1.47-4.29,1.78v2.69c0,1.35-1.09,2.44-2.44,2.44c-1.35,0-2.44-1.09-2.44-2.44v-2.69
		c-1.56-0.32-3.01-0.93-4.29-1.78l-1.91,1.91c-0.96,0.95-2.5,0.95-3.46,0c-0.95-0.96-0.95-2.5,0-3.46l1.91-1.91
		c-0.85-1.28-1.47-2.73-1.78-4.29h-2.69c-1.35,0-2.44-1.1-2.44-2.44c0-1.35,1.09-2.44,2.44-2.44h2.69c0.32-1.56,0.93-3.01,1.78-4.29
		l-1.91-1.91c-0.95-0.95-0.95-2.5,0-3.46c0.95-0.95,2.5-0.95,3.46,0l1.91,1.91c1.28-0.85,2.73-1.47,4.29-1.78v-2.69
		c0-1.35,1.09-2.44,2.44-2.44c1.35,0,2.44,1.09,2.44,2.44v2.69c1.56,0.32,3.01,0.93,4.29,1.78l1.91-1.91c0.96-0.95,2.5-0.95,3.46,0
		c0.95,0.96,0.95,2.5,0,3.46l-1.91,1.91c0.85,1.28,1.47,2.73,1.78,4.29h2.69C511.9,143,512.99,144.1,512.99,145.45L512.99,145.45z
		 M512.99,145.45"/>
</g>
<g>
	<path class="st2" d="M422.43,272.32v38.91c0,1.31,1.06,2.37,2.37,2.37h21.24v5.15h-3.81c-1.31,0-2.37,1.06-2.37,2.37
		c0,1.31,1.06,2.37,2.37,2.37h25.2c1.31,0,2.37-1.06,2.37-2.37c0-1.31-1.06-2.37-2.37-2.37h-3.81v-5.15h21.24
		c1.31,0,2.37-1.06,2.37-2.37v-38.91c0-1.31-1.06-2.37-2.37-2.37h-60.07C423.48,269.95,422.43,271.01,422.43,272.32L422.43,272.32z
		 M458.89,318.52h-8.12v-4.92h8.12V318.52z M427.16,274.69h55.34v34.18h-55.34V274.69z M427.16,274.69"/>
	<path class="st2" d="M506,295.24v-38.91c0-1.31-1.06-2.37-2.37-2.37h-60.07c-1.31,0-2.37,1.06-2.37,2.37v9.13
		c0,1.31,1.06,2.37,2.37,2.37c1.31,0,2.37-1.06,2.37-2.37v-6.77h55.34v34.18h-7.13c-1.31,0-2.37,1.06-2.37,2.37
		c0,1.31,1.06,2.37,2.37,2.37h9.49C504.94,297.61,506,296.55,506,295.24L506,295.24z M506,295.24"/>
</g>
<g>
	<g>
		<defs>
			<rect id="SVGID_1_" x="340.27" y="-142" width="91.89" height="91.89"/>
		</defs>
		<clipPath id="SVGID_2_">
			<use xlink:href="#SVGID_1_"  style="overflow:visible;"/>
		</clipPath>
		<path class="st5" d="M430.68-76.79h-1.48v-2.96c0-0.82-0.66-1.48-1.48-1.48h-14.82v-10.37c0-0.82-0.66-1.48-1.48-1.48h-23.71
			v-7.41h14.9c7.21,0,13.24-5.47,13.94-12.64c0.7-7.17-4.15-13.71-11.22-15.11c-2.11-7.53-8.66-12.98-16.45-13.67
			c-7.79-0.7-15.2,3.49-18.62,10.53c-0.14-0.01-0.27-0.01-0.4-0.01c-4.54,0.01-8.22,3.69-8.23,8.23c0,0.09,0,0.19,0.01,0.29
			c-4.62,2.82-6.8,8.37-5.34,13.58c1.46,5.21,6.22,8.81,11.63,8.81h16.82v7.41h-23.71c-0.82,0-1.48,0.66-1.48,1.48v10.37h-1.9
			l-1.15-3.43c-0.2-0.61-0.77-1.01-1.41-1.01h-10.37c-0.82,0-1.48,0.66-1.48,1.48v7.41h-1.48c-0.82,0-1.48,0.66-1.48,1.48v23.71
			c0,0.82,0.66,1.48,1.48,1.48h38.54c0.82,0,1.48-0.66,1.48-1.48V-75.3c0-0.82-0.66-1.48-1.48-1.48h-1.48v-2.96
			c0-0.82-0.66-1.48-1.48-1.48H362.5v-8.89h47.43v8.89h-1.9l-1.15-3.43c-0.2-0.61-0.77-1.01-1.41-1.01h-10.37
			c-0.82,0-1.48,0.66-1.48,1.48v7.41h-1.48c-0.82,0-1.48,0.66-1.48,1.48v23.71c0,0.82,0.66,1.48,1.48,1.48h38.54
			c0.82,0,1.48-0.66,1.48-1.48V-75.3C432.16-76.12,431.49-76.79,430.68-76.79L430.68-76.79z M378.8-73.82v20.75h-35.57v-20.75H378.8
			z M375.84-78.27v1.48H346.2v-5.93h7.82l1.15,3.43c0.2,0.61,0.77,1.01,1.41,1.01H375.84z M367.91-103.46
			c-4.23,0-7.91-2.91-8.88-7.03c-0.97-4.12,1.02-8.36,4.81-10.25c0.58-0.29,0.91-0.93,0.8-1.57c-0.28-1.7,0.29-3.44,1.53-4.64
			c1.24-1.2,2.99-1.72,4.69-1.39c0.69,0.14,1.39-0.24,1.65-0.89c2.64-6.4,9.13-10.35,16.03-9.75c6.9,0.6,12.61,5.6,14.12,12.36
			c0.14,0.61,0.65,1.08,1.27,1.15c5.79,0.71,10.04,5.8,9.68,11.63c-0.36,5.83-5.18,10.37-11.02,10.37H367.91z M396.59-82.72h7.82
			l1.15,3.43c0.2,0.61,0.77,1.01,1.41,1.01h19.27v1.48h-29.64V-82.72z M429.19-53.07h-35.57v-20.75h35.57V-53.07z M429.19-53.07"/>
	</g>
</g>
<g>
	<g>
		<path class="st2" d="M430.48,13.63c-0.07-0.27-0.16-0.53-0.29-0.78l-0.21-0.4c0-0.78-0.87-1.25-1.53-0.83
			c-1.25,0.8-2.7,1.23-4.18,1.24l-3.41,0.02c-0.15-0.22-0.32-0.42-0.52-0.59c-0.2-0.17-0.42-0.32-0.66-0.43
			c-0.6-7.07-3.39-13.68-8.04-19.04c0.17-0.5,0.2-1.04,0.09-1.55l2.39-2.42c1.04-1.05,2.36-1.79,3.81-2.12
			c0.76-0.18,1.03-1.12,0.47-1.67l-0.15-0.43c-0.36-1.07-1.21-1.9-2.28-2.25l-0.43-0.14c-0.56-0.55-1.5-0.27-1.67,0.49
			c-0.32,1.45-1.04,2.77-2.08,3.83l-2.39,2.42c-0.52-0.1-1.05-0.06-1.56,0.11c-3.68-3.1-7.86-5.29-12.26-6.55
			c-1.04-0.3-2.09-0.55-3.15-0.75c-0.53-0.1-1.06-0.19-1.6-0.26c-0.72-0.1-1.43-0.17-2.15-0.22c-0.24-0.48-0.6-0.89-1.04-1.18
			l-0.02-3.4c-0.01-1.48,0.4-2.93,1.19-4.19c0.41-0.66-0.07-1.52-0.85-1.52l-0.41-0.2c-0.51-0.25-1.06-0.37-1.61-0.37
			c-0.55,0-1.1,0.13-1.6,0.39l-0.4,0.21c-0.78,0-1.25,0.87-0.83,1.53c0.8,1.25,1.23,2.7,1.24,4.18l0.02,3.4
			c-0.44,0.29-0.8,0.71-1.03,1.19c-0.86,0.07-1.71,0.18-2.56,0.32c-5.95,0.97-11.69,3.53-16.51,7.69c-0.5-0.17-1.04-0.2-1.56-0.09
			l-2.42-2.39c-1.06-1.04-1.79-2.36-2.13-3.8c-0.18-0.76-1.13-1.03-1.68-0.47l-0.43,0.14c-1.07,0.36-1.91,1.21-2.26,2.28l-0.14,0.43
			c-0.55,0.56-0.27,1.5,0.5,1.67c1.45,0.32,2.78,1.04,3.84,2.08l2.42,2.39c-0.1,0.52-0.06,1.05,0.11,1.55
			c-4.59,5.42-7.29,12.06-7.8,19.14c-0.43,0.22-0.8,0.53-1.08,0.92c-0.03,0.04-0.06,0.07-0.08,0.11l-3.41,0.02
			c-1.48,0.01-2.94-0.4-4.2-1.19c-0.66-0.41-1.53,0.07-1.52,0.85l-0.2,0.41c-0.25,0.51-0.37,1.06-0.37,1.6
			c0,0.07,0.02,0.13,0.02,0.2c0.03,0.44,0.13,0.88,0.33,1.29c0.02,0.03,0.02,0.07,0.04,0.11l0,0l0.21,0.4
			c0,0.78,0.87,1.25,1.53,0.83c1.25-0.8,2.7-1.23,4.18-1.24l3.41-0.02c0.15,0.22,0.32,0.42,0.52,0.59c0.2,0.17,0.42,0.32,0.66,0.43
			c0.6,7.07,3.39,13.68,8.04,19.04c-0.17,0.5-0.2,1.04-0.09,1.55l-2.39,2.42c-1.04,1.05-2.36,1.79-3.81,2.12h0
			c-0.76,0.18-1.03,1.12-0.47,1.67l0.15,0.43c0.36,1.07,1.21,1.9,2.28,2.25l0.43,0.14c0.56,0.55,1.5,0.27,1.67-0.49
			c0.32-1.45,1.04-2.77,2.08-3.83l2.39-2.42c0.52,0.1,1.05,0.06,1.56-0.11c5.57,4.69,12.3,7.28,19.17,7.78
			c0.15,0.3,0.33,0.57,0.57,0.8c0.03,0.02,0.06,0.04,0.08,0.07c0.12,0.11,0.25,0.22,0.39,0.31l0.02,3.4
			c0.01,1.48-0.4,2.93-1.19,4.19c-0.41,0.66,0.07,1.52,0.85,1.52l0.41,0.2c0.51,0.25,1.06,0.37,1.61,0.37c0.55,0,1.1-0.13,1.6-0.39
			l0.4-0.21c0.78,0,1.25-0.87,0.83-1.53c-0.8-1.25-1.23-2.7-1.24-4.18l-0.02-3.4c0.44-0.29,0.79-0.71,1.03-1.19
			c6.86-0.58,13.56-3.26,19.07-8.01c0.5,0.17,1.04,0.2,1.56,0.09l2.42,2.39c1.06,1.04,1.79,2.36,2.13,3.8
			c0.18,0.76,1.13,1.03,1.68,0.47l0.43-0.14c1.07-0.36,1.91-1.21,2.26-2.28l0.14-0.43c0.55-0.56,0.27-1.5-0.5-1.67h0
			c-1.45-0.32-2.78-1.04-3.84-2.08l-2.42-2.39c0.1-0.52,0.06-1.05-0.11-1.55c4.59-5.42,7.29-12.06,7.8-19.14
			c0.48-0.24,0.88-0.59,1.17-1.03l3.41-0.02c1.48-0.01,2.94,0.4,4.2,1.19c0.5,0.31,1.11,0.12,1.38-0.33
			c0.01-0.01,0.01-0.02,0.01-0.03c0.08-0.14,0.13-0.31,0.13-0.49l0.2-0.41c0.25-0.51,0.37-1.06,0.37-1.6
			C430.57,14.18,430.54,13.9,430.48,13.63z M351.14,14.28L351.14,14.28l0,0.19c0,0-0.02,0-0.03,0c-0.15-0.01-2.4-0.1-4.68-0.19
			c-0.29-0.01-0.59-0.02-0.88-0.04c-0.3-0.01-0.59-0.09-0.85-0.2c-0.26-0.11-0.49-0.26-0.69-0.41c-0.1-0.08-0.19-0.16-0.28-0.23
			c-0.09-0.06-0.2-0.07-0.3-0.04c-0.21,0.06-0.26,0.28-0.34,0.44c-0.07,0.16-0.14,0.31-0.19,0.42c-0.11,0.23-0.17,0.37-0.17,0.37
			s0.05-0.14,0.15-0.37c0.05-0.12,0.11-0.26,0.17-0.43c0.03-0.08,0.07-0.17,0.11-0.27c0.04-0.1,0.13-0.18,0.25-0.22
			c0.11-0.04,0.25-0.03,0.36,0.03c0.1,0.07,0.2,0.15,0.3,0.22c0.2,0.14,0.43,0.27,0.69,0.37c0.25,0.1,0.52,0.16,0.8,0.15
			c0.29,0,0.58,0,0.88,0c2.35-0.01,4.71-0.01,4.71-0.01L351.14,14.28z M414.92,1.96c0.17-0.07,0.35-0.07,0.52-0.02
			c0.01,0,0.01,0.01,0.02,0.01c0.15,0.06,0.29,0.17,0.38,0.31v0c0.02,0.03,0.05,0.06,0.06,0.09c0.04,0.09,0.06,0.19,0.06,0.29
			c0,0.29-0.17,0.57-0.46,0.69c-0.38,0.16-0.82-0.02-0.98-0.4c-0.01-0.02-0.01-0.04-0.01-0.06c-0.01-0.02-0.01-0.03-0.01-0.05v0
			c-0.02-0.09-0.03-0.18-0.02-0.26C414.5,2.3,414.66,2.07,414.92,1.96z M413.52-14.15c0.21-0.21,0.41-0.42,0.61-0.63
			c0.2-0.2,0.35-0.43,0.45-0.68c0.11-0.25,0.17-0.5,0.21-0.75c0.02-0.13,0.03-0.25,0.05-0.37c0.03-0.13,0.12-0.23,0.23-0.28
			c0.11-0.05,0.23-0.06,0.33-0.02c0.09,0.04,0.18,0.07,0.27,0.11c0.17,0.07,0.31,0.13,0.43,0.18c0.24,0.1,0.37,0.15,0.37,0.15
			s-0.14-0.05-0.38-0.14c-0.12-0.04-0.27-0.1-0.44-0.16c-0.17-0.05-0.36-0.18-0.55-0.06c-0.09,0.05-0.16,0.14-0.18,0.24
			c-0.01,0.12-0.02,0.24-0.03,0.36c-0.03,0.25-0.09,0.52-0.19,0.78c-0.1,0.26-0.25,0.52-0.45,0.75c-0.19,0.21-0.39,0.43-0.59,0.65
			c-1.52,1.69-3.03,3.36-3.13,3.47c0,0-0.02,0.02-0.02,0.02l-0.13-0.13l-0.16-0.15C410.22-10.79,411.87-12.47,413.52-14.15z
			 M407.76-8.11c0.29-0.29,0.76-0.3,1.06-0.01h0c0.29,0.29,0.3,0.76,0.01,1.05c-0.29,0.29-0.76,0.3-1.06,0.01v0
			C407.47-7.34,407.47-7.81,407.76-8.11z M408.68-3.95c3.74,4.46,6.02,9.88,6.62,15.66c-0.66,0.21-1.23,0.64-1.6,1.21l-5.95,0.04
			c-0.05-0.13-0.12-0.25-0.21-0.36c-0.03-0.04-0.05-0.09-0.09-0.13c-0.23-0.23-0.55-0.37-0.9-0.37c-0.56,0-1.02,0.37-1.18,0.87
			l-1.53,0.01c-0.06-0.18-0.16-0.35-0.29-0.49c-0.23-0.23-0.55-0.37-0.9-0.37c-0.18,0-0.34,0.04-0.49,0.1
			c-0.33,0.14-0.57,0.42-0.69,0.77l-6.17,0.04c-0.23-0.07-0.47-0.13-0.72-0.18c-0.25-0.05-0.52-0.09-0.8-0.11
			c-0.27-0.02-0.55-0.04-0.84-0.04c-0.22,0-0.43,0.02-0.64,0.03c-0.11-0.33-0.24-0.64-0.41-0.95c0.16-0.14,0.32-0.28,0.48-0.44
			c0.62-0.62,1.1-1.29,1.41-1.92l4.34-4.38c0.48,0.23,1.06,0.16,1.45-0.24c0.39-0.4,0.46-0.98,0.22-1.45l1.07-1.08
			c0.48,0.23,1.06,0.16,1.45-0.24c0.39-0.4,0.46-0.98,0.22-1.45l4.18-4.22C407.36-3.52,408.06-3.62,408.68-3.95z M397.46-14.56
			c0.14-0.34,0.51-0.51,0.86-0.43c0.04,0.01,0.07,0.01,0.11,0.02h0c0.38,0.16,0.56,0.59,0.41,0.97c-0.12,0.29-0.39,0.46-0.68,0.46
			c-0.1,0-0.2-0.02-0.29-0.06c-0.03-0.01-0.06-0.04-0.09-0.06h0c-0.08-0.05-0.15-0.11-0.2-0.17
			C397.41-14.02,397.36-14.3,397.46-14.56z M388.86-14.31c0.02,0,0.03,0,0.05,0c0.51,0.05,1.02,0.14,1.53,0.21
			c0.42,0.06,0.83,0.1,1.25,0.18c0.49,0.09,0.98,0.23,1.47,0.35c0.42,0.1,0.85,0.18,1.27,0.31c0.47,0.14,0.94,0.32,1.4,0.48
			c0.42,0.15,0.85,0.27,1.27,0.44c0.46,0.18,0.9,0.41,1.35,0.62c0.41,0.19,0.83,0.36,1.24,0.57c0.45,0.23,0.89,0.51,1.33,0.77
			c0.39,0.23,0.78,0.43,1.16,0.68c0.49,0.32,0.95,0.68,1.43,1.03c0.31,0.23,0.63,0.44,0.94,0.68c0.03,0.03,0.07,0.06,0.1,0.09
			c-0.32,0.62-0.42,1.31-0.27,1.98l-4.18,4.22c-0.48-0.23-1.06-0.16-1.45,0.24c-0.39,0.4-0.46,0.98-0.22,1.45l-1.07,1.08
			c-0.48-0.23-1.06-0.16-1.45,0.24c-0.39,0.4-0.46,0.98-0.22,1.45l-4.34,4.38c-0.63,0.32-1.29,0.81-1.91,1.43
			c-0.16,0.16-0.29,0.32-0.43,0.48c-0.31-0.16-0.63-0.29-0.96-0.39c0.01-0.21,0.03-0.42,0.03-0.64c0-0.29-0.02-0.57-0.05-0.84
			c-0.06-0.55-0.17-1.07-0.32-1.52l0,0l0-0.04l-0.04-6.12c0.18-0.06,0.35-0.16,0.49-0.29c0.23-0.23,0.37-0.55,0.37-0.9v0
			c0-0.56-0.37-1.01-0.87-1.18l-0.01-1.52c0.18-0.06,0.35-0.16,0.49-0.29c0.23-0.23,0.37-0.55,0.37-0.9c0-0.56-0.37-1.01-0.87-1.18
			l-0.04-5.94C388.24-13.1,388.66-13.66,388.86-14.31z M386.01-17.38L386.01-17.38c0.1,0,0.2,0.02,0.29,0.06
			c0.27,0.11,0.46,0.38,0.46,0.68c0,0.41-0.33,0.75-0.74,0.75l0,0c-0.1,0-0.2-0.02-0.29-0.06c-0.27-0.11-0.46-0.38-0.46-0.68
			c0,0,0,0,0,0c0-0.14,0.05-0.26,0.11-0.37c0.02-0.03,0.03-0.05,0.05-0.08c0.08-0.1,0.17-0.19,0.29-0.24
			C385.81-17.35,385.91-17.37,386.01-17.38z M384.29-27.61c-0.07-0.11-0.08-0.25-0.04-0.36c0.04-0.11,0.12-0.2,0.22-0.25
			c0.09-0.04,0.18-0.08,0.26-0.11c0.17-0.07,0.31-0.13,0.43-0.18c0.24-0.1,0.37-0.15,0.37-0.15s-0.13,0.06-0.37,0.17
			c-0.12,0.05-0.26,0.12-0.42,0.2c-0.15,0.08-0.38,0.13-0.44,0.34c-0.03,0.1-0.02,0.21,0.04,0.3c0.08,0.09,0.15,0.18,0.23,0.28
			c0.16,0.2,0.31,0.43,0.42,0.69c0.12,0.26,0.2,0.54,0.21,0.85c0.02,0.29,0.03,0.58,0.05,0.88c0.12,2.27,0.24,4.51,0.24,4.66
			c0,0.01,0,0.03,0,0.03l-0.19,0h0l-0.22,0c0,0-0.02-2.35-0.04-4.7c0-0.29-0.01-0.59-0.01-0.88c0-0.28-0.06-0.55-0.16-0.8
			c-0.1-0.25-0.23-0.48-0.38-0.68C384.44-27.42,384.36-27.51,384.29-27.61z M373.43-14.51c0.04-0.08,0.08-0.16,0.15-0.23
			c0.04-0.04,0.1-0.07,0.15-0.1h0c0.03-0.02,0.06-0.05,0.09-0.06c0.38-0.16,0.82,0.02,0.98,0.4c0.16,0.38-0.02,0.82-0.4,0.98
			c-0.03,0.01-0.07,0.01-0.11,0.02h0c-0.06,0.02-0.12,0.04-0.19,0.04c-0.29,0-0.57-0.17-0.69-0.46
			C373.34-14.12,373.35-14.33,373.43-14.51z M367.63-7.8c0.27-0.22,0.56-0.41,0.84-0.62c0.5-0.38,1-0.78,1.52-1.13
			c0.37-0.25,0.75-0.45,1.13-0.68c0.45-0.27,0.9-0.56,1.36-0.81c0.42-0.22,0.85-0.4,1.28-0.6c0.44-0.21,0.87-0.43,1.32-0.62
			c0.45-0.18,0.91-0.32,1.36-0.48c0.44-0.16,0.88-0.33,1.32-0.47c0.47-0.14,0.94-0.24,1.41-0.35c0.45-0.11,0.89-0.24,1.34-0.33
			c0.47-0.09,0.95-0.14,1.43-0.21c0.42-0.06,0.84-0.14,1.27-0.18c0.13,0.4,0.35,0.76,0.63,1.07c0.17,0.19,0.36,0.36,0.57,0.5
			l0.04,5.94c-0.12,0.04-0.24,0.11-0.34,0.18c-0.31,0.23-0.51,0.59-0.51,1.01c0,0.56,0.37,1.01,0.87,1.18l0.01,1.53
			c-0.25,0.09-0.46,0.25-0.62,0.45c-0.15,0.21-0.24,0.46-0.24,0.74c0,0.56,0.37,1.01,0.87,1.18l0.04,6.16
			c-0.07,0.23-0.14,0.47-0.19,0.73c-0.1,0.5-0.15,1.05-0.15,1.63c0,0.22,0.02,0.43,0.03,0.64c-0.33,0.11-0.65,0.24-0.96,0.4
			c-0.14-0.16-0.28-0.32-0.44-0.48c-0.62-0.62-1.29-1.09-1.93-1.41l-4.39-4.33c0.23-0.47,0.16-1.06-0.24-1.45
			c-0.4-0.39-0.98-0.46-1.45-0.22l-1.09-1.07c0.23-0.47,0.16-1.06-0.24-1.45l0,0c-0.4-0.39-0.98-0.46-1.45-0.22l-4.23-4.17
			c0.13-0.66,0.03-1.36-0.3-1.97C367.55-7.72,367.59-7.76,367.63-7.8z M363.33-7.83L363.33-7.83c0.04-0.04,0.08-0.06,0.13-0.08
			c0.29-0.19,0.67-0.17,0.93,0.08c0.29,0.29,0.3,0.76,0.01,1.05h0c-0.29,0.29-0.76,0.3-1.06,0.01
			C363.04-7.07,363.04-7.54,363.33-7.83z M357.29-12.53c-0.21-0.21-0.42-0.41-0.63-0.61c-0.2-0.2-0.43-0.34-0.68-0.45
			c-0.25-0.11-0.5-0.17-0.75-0.21c-0.13-0.02-0.25-0.03-0.37-0.05c-0.13-0.03-0.23-0.12-0.28-0.23c-0.05-0.11-0.06-0.23-0.02-0.33
			c0.04-0.09,0.07-0.18,0.11-0.27c0.07-0.17,0.13-0.31,0.18-0.43c0.1-0.24,0.15-0.37,0.15-0.37s-0.05,0.14-0.14,0.38
			c-0.04,0.12-0.1,0.27-0.16,0.44c-0.05,0.17-0.18,0.36-0.06,0.55c0.05,0.09,0.14,0.16,0.24,0.18c0.12,0.01,0.24,0.02,0.36,0.03
			c0.25,0.03,0.52,0.09,0.79,0.19c0.26,0.1,0.53,0.25,0.75,0.45c0.22,0.19,0.43,0.39,0.65,0.59c1.69,1.52,3.36,3.02,3.48,3.12
			c0,0,0.02,0.02,0.02,0.02L360.8-9.4l-0.15,0.16C360.64-9.24,358.97-10.88,357.29-12.53z M363.52-3.67
			c0.62,0.32,1.32,0.42,1.99,0.28l4.23,4.17c-0.23,0.47-0.16,1.06,0.24,1.45c0.4,0.39,0.98,0.46,1.45,0.22l1.09,1.07
			c-0.23,0.47-0.16,1.06,0.24,1.45s0.98,0.46,1.45,0.22l4.39,4.33c0.33,0.63,0.81,1.29,1.44,1.91c0.16,0.16,0.32,0.29,0.48,0.43
			c-0.16,0.31-0.29,0.63-0.39,0.96c-0.21-0.01-0.42-0.03-0.64-0.03c-0.58,0-1.13,0.06-1.63,0.17c-0.26,0.05-0.5,0.12-0.73,0.2
			l-6.17,0.04c-0.01-0.03-0.01-0.06-0.02-0.09c-0.13-0.3-0.38-0.54-0.68-0.67c-0.15-0.06-0.32-0.1-0.5-0.1
			c-0.53,0-0.98,0.33-1.17,0.78c-0.01,0.03-0.01,0.06-0.02,0.09l-1.53,0.01c-0.04-0.12-0.11-0.24-0.18-0.34
			c-0.23-0.31-0.59-0.51-1.01-0.51c-0.35,0-0.67,0.15-0.9,0.38c-0.13,0.14-0.22,0.31-0.29,0.49l-5.95,0.04
			c-0.38-0.57-0.95-0.99-1.62-1.19c0.13-1.46,0.37-2.9,0.71-4.3c0.23-0.92,0.49-1.83,0.81-2.72C359.72,1.9,361.37-1.04,363.52-3.67z
			 M355.55,14.91c0,0.41-0.33,0.75-0.74,0.75c-0.41,0-0.75-0.33-0.75-0.74v0c0-0.41,0.33-0.75,0.74-0.75
			C355.21,14.17,355.54,14.5,355.55,14.91L355.55,14.91z M356.44,2.63L356.44,2.63c0.01-0.04,0.01-0.07,0.02-0.11
			c0.16-0.38,0.59-0.56,0.98-0.41c0.29,0.12,0.46,0.39,0.46,0.68c0,0.02-0.01,0.05-0.01,0.07c-0.01,0.07-0.01,0.15-0.04,0.22l0,0
			c-0.01,0.03-0.04,0.06-0.06,0.09h0c-0.19,0.31-0.57,0.46-0.92,0.32c-0.29-0.12-0.46-0.39-0.46-0.68
			C356.41,2.75,356.43,2.69,356.44,2.63z M357.51,27.49c-0.26,0.11-0.54,0.05-0.74-0.11c0,0,0-0.01-0.01-0.01
			c-0.06-0.05-0.12-0.12-0.17-0.19v0c-0.02-0.03-0.05-0.06-0.06-0.09c-0.02-0.04-0.01-0.08-0.02-0.12
			c-0.08-0.35,0.08-0.72,0.42-0.86c0.29-0.12,0.6-0.05,0.81,0.16c0.07,0.07,0.13,0.15,0.17,0.25c0.01,0.03,0.01,0.06,0.02,0.08
			c0,0.01,0,0.01,0,0.02v0c0.01,0.04,0.02,0.08,0.03,0.13c0,0.02,0.01,0.04,0.01,0.06C357.97,27.09,357.8,27.37,357.51,27.49z
			 M361.21,39.31c-0.11,0.1-1.77,1.63-3.44,3.17c-0.22,0.2-0.43,0.4-0.65,0.59c-0.22,0.21-0.48,0.36-0.74,0.46
			c-0.26,0.1-0.53,0.16-0.78,0.2c-0.12,0.01-0.25,0.02-0.36,0.04c-0.11,0.02-0.19,0.09-0.24,0.18c-0.11,0.19,0.02,0.38,0.07,0.55
			c0.06,0.17,0.12,0.31,0.16,0.43c0.09,0.24,0.14,0.38,0.14,0.38s-0.06-0.14-0.16-0.37c-0.05-0.12-0.11-0.26-0.18-0.43
			c-0.04-0.08-0.07-0.17-0.11-0.26c-0.04-0.1-0.03-0.22,0.02-0.33c0.05-0.11,0.15-0.2,0.28-0.23c0.12-0.02,0.24-0.04,0.37-0.05
			c0.25-0.04,0.5-0.11,0.75-0.22c0.25-0.11,0.48-0.26,0.68-0.46c0.2-0.2,0.41-0.41,0.62-0.62c1.66-1.67,3.32-3.33,3.32-3.33
			l0.16,0.16l0.13,0.13C361.23,39.29,361.21,39.31,361.21,39.31z M364.67,37.55c-0.1,0.1-0.22,0.15-0.34,0.18
			c-0.03,0.01-0.06,0.01-0.09,0.02c-0.13,0.02-0.26,0.01-0.38-0.03c-0.09-0.04-0.17-0.09-0.25-0.16h0
			c-0.07-0.07-0.13-0.16-0.17-0.25c-0.11-0.27-0.06-0.59,0.16-0.81c0.29-0.29,0.76-0.3,1.06-0.01v0
			C364.96,36.79,364.96,37.26,364.67,37.55z M363.75,33.4c-3.74-4.46-6.03-9.88-6.62-15.66c0.66-0.21,1.23-0.64,1.6-1.21l5.95-0.04
			c0.03,0.08,0.06,0.14,0.1,0.21c0.22,0.38,0.62,0.64,1.09,0.64c0.56,0,1.02-0.37,1.18-0.87l1.53-0.01c0.12,0.34,0.37,0.62,0.7,0.76
			c0.15,0.06,0.32,0.1,0.5,0.1c0.53,0,0.98-0.33,1.17-0.78c0.01-0.03,0.01-0.06,0.02-0.09l6.17-0.04c0.01,0,0.02,0.01,0.02,0.01
			c0.22,0.07,0.46,0.13,0.71,0.18c0.5,0.1,1.05,0.15,1.63,0.15h0c0.22,0,0.43-0.02,0.64-0.03c0.11,0.33,0.24,0.64,0.41,0.95
			c-0.16,0.14-0.32,0.28-0.48,0.44c-0.62,0.62-1.1,1.29-1.41,1.92l-4.34,4.38c-0.48-0.23-1.06-0.16-1.45,0.24
			c-0.39,0.4-0.46,0.98-0.22,1.45l-1.07,1.08c-0.48-0.23-1.06-0.16-1.45,0.24c-0.39,0.4-0.46,0.98-0.22,1.45l-4.18,4.22
			C365.06,32.96,364.36,33.07,363.75,33.4z M374.96,44.01c-0.14,0.34-0.51,0.51-0.86,0.43h0c-0.04-0.01-0.07-0.01-0.11-0.02
			c-0.1-0.04-0.18-0.1-0.25-0.16c-0.2-0.21-0.28-0.52-0.16-0.81c0.12-0.29,0.39-0.46,0.68-0.46c0.1,0,0.2,0.02,0.29,0.06
			c0.03,0.01,0.06,0.04,0.09,0.06l0,0c0.07,0.04,0.12,0.09,0.17,0.14c0.01,0.01,0.02,0.02,0.03,0.03
			C375.01,43.47,375.07,43.75,374.96,44.01z M383.56,43.76c-5.63-0.51-11.15-2.64-15.78-6.4c0.32-0.62,0.41-1.31,0.27-1.98
			l4.18-4.22c0.48,0.23,1.06,0.16,1.45-0.24c0.39-0.4,0.46-0.98,0.22-1.45l1.07-1.08c0.48,0.23,1.06,0.16,1.45-0.24
			c0.39-0.4,0.46-0.98,0.22-1.45l4.34-4.38c0.63-0.32,1.29-0.81,1.91-1.43c0.16-0.16,0.29-0.32,0.43-0.48
			c0.31,0.16,0.63,0.29,0.96,0.39c-0.01,0.21-0.03,0.42-0.03,0.64c0,0.58,0.06,1.13,0.17,1.63c0.05,0.25,0.11,0.49,0.19,0.71
			c0,0.01,0.01,0.02,0.01,0.02v0l0,0.04l0.04,6.12c-0.5,0.17-0.86,0.64-0.86,1.19c0,0.56,0.37,1.01,0.87,1.18l0.01,1.52
			c-0.5,0.17-0.86,0.64-0.86,1.19c0,0.14,0.04,0.28,0.09,0.41c0.06,0.18,0.16,0.35,0.29,0.49c0.04,0.04,0.09,0.06,0.14,0.09
			c0.11,0.08,0.22,0.15,0.36,0.2l0.04,5.94C384.18,42.54,383.77,43.11,383.56,43.76z M384.65,18.95c-0.02-0.01-0.03-0.01-0.05-0.01
			c-0.06-0.02-0.12-0.05-0.18-0.08c-0.02-0.01-0.03-0.02-0.05-0.02c-0.48-0.21-0.94-0.51-1.34-0.9c-0.39-0.39-0.69-0.84-0.92-1.32
			c-0.01-0.02-0.02-0.03-0.02-0.05c-0.03-0.06-0.05-0.12-0.08-0.18v0c-0.01-0.02-0.01-0.03-0.02-0.05c-0.19-0.5-0.3-1.03-0.31-1.58
			c0-0.55,0.1-1.08,0.29-1.58c0.01-0.02,0.01-0.03,0.01-0.05c0.02-0.06,0.05-0.12,0.08-0.19c0.01-0.02,0.02-0.03,0.02-0.05
			c0.22-0.49,0.51-0.94,0.9-1.34c0.39-0.4,0.85-0.69,1.33-0.91c0.02-0.01,0.03-0.02,0.05-0.03c0.06-0.03,0.12-0.06,0.18-0.08
			c0.02-0.01,0.03-0.01,0.05-0.01c1.02-0.39,2.15-0.39,3.17-0.02h0c0.02,0.01,0.03,0.01,0.05,0.01c0.06,0.02,0.12,0.05,0.18,0.08
			c0.02,0.01,0.03,0.02,0.05,0.02c0.48,0.21,0.94,0.5,1.34,0.9c0.39,0.39,0.69,0.84,0.92,1.32c0.01,0.02,0.02,0.03,0.02,0.05
			c0.03,0.06,0.05,0.12,0.08,0.18c0.01,0.02,0.01,0.03,0.02,0.05v0c0.19,0.5,0.3,1.03,0.31,1.58c0,0.55-0.1,1.08-0.29,1.58h0
			c-0.01,0.02-0.01,0.03-0.01,0.05c-0.02,0.06-0.05,0.12-0.08,0.19c-0.01,0.02-0.02,0.03-0.02,0.05c-0.22,0.49-0.52,0.94-0.9,1.34
			c-0.39,0.4-0.85,0.69-1.33,0.91c-0.02,0.01-0.03,0.02-0.05,0.03c-0.06,0.03-0.12,0.06-0.18,0.08c-0.02,0.01-0.03,0.01-0.05,0.01
			c-0.52,0.2-1.06,0.31-1.61,0.31C385.68,19.24,385.16,19.13,384.65,18.95z M386.41,46.82c-0.41,0-0.75-0.33-0.75-0.74
			s0.33-0.75,0.74-0.75l0,0c0.41,0,0.75,0.33,0.75,0.74C387.16,46.48,386.82,46.82,386.41,46.82z M388.14,57.06
			c0.07,0.11,0.08,0.25,0.04,0.36c-0.04,0.11-0.12,0.2-0.22,0.25c-0.09,0.04-0.18,0.08-0.26,0.11c-0.17,0.07-0.31,0.13-0.43,0.18
			c-0.24,0.1-0.37,0.15-0.37,0.15s0.13-0.06,0.37-0.17c0.12-0.05,0.26-0.12,0.42-0.2c0.15-0.08,0.38-0.13,0.44-0.34
			c0.03-0.1,0.02-0.21-0.04-0.3c-0.08-0.09-0.15-0.18-0.23-0.28c-0.16-0.2-0.31-0.43-0.42-0.69c-0.12-0.26-0.2-0.54-0.21-0.85
			c-0.02-0.29-0.03-0.58-0.05-0.88c-0.12-2.27-0.24-4.51-0.24-4.66c0-0.01,0-0.03,0-0.03l0.19,0h0l0.22,0c0,0,0.02,2.35,0.04,4.7
			c0,0.29,0.01,0.59,0.01,0.88c0,0.28,0.06,0.55,0.16,0.8c0.1,0.25,0.23,0.48,0.38,0.68C387.99,56.86,388.06,56.96,388.14,57.06z
			 M398.99,43.95c-0.04,0.08-0.08,0.16-0.15,0.23c-0.04,0.04-0.1,0.07-0.15,0.1h0c-0.03,0.02-0.06,0.05-0.09,0.06
			c-0.38,0.16-0.82-0.02-0.98-0.4c-0.15-0.35,0-0.74,0.32-0.92c0.03-0.02,0.05-0.04,0.08-0.05c0.03-0.01,0.07-0.01,0.11-0.02
			c0.15-0.04,0.3-0.02,0.43,0.03c0.04,0.01,0.08,0.03,0.11,0.05c0.14,0.08,0.26,0.19,0.32,0.35
			C399.08,43.56,399.07,43.77,398.99,43.95z M389.22,43.73c-0.21-0.66-0.64-1.21-1.21-1.58l-0.04-5.94c0.5-0.17,0.86-0.64,0.86-1.19
			c0-0.56-0.37-1.01-0.87-1.18l-0.01-1.52c0.5-0.17,0.86-0.64,0.86-1.19c0-0.56-0.37-1.01-0.87-1.18l-0.04-6.16
			c0.14-0.42,0.23-0.91,0.28-1.42c0.03-0.3,0.05-0.62,0.05-0.94c0-0.22-0.02-0.43-0.03-0.64c0.15-0.05,0.31-0.08,0.46-0.14
			c0.17-0.07,0.33-0.18,0.5-0.27c0.14,0.16,0.28,0.32,0.44,0.48c0.62,0.62,1.29,1.09,1.93,1.41l4.39,4.33
			c-0.23,0.47-0.16,1.06,0.24,1.45c0.4,0.39,0.98,0.46,1.45,0.22l1.09,1.07c-0.23,0.47-0.16,1.06,0.24,1.45
			c0.4,0.39,0.98,0.46,1.45,0.22l4.23,4.17c-0.13,0.67-0.03,1.36,0.3,1.97C400.34,40.95,394.85,43.15,389.22,43.73z M409.09,37.28
			L409.09,37.28c-0.29,0.29-0.76,0.3-1.06,0.01c-0.29-0.29-0.3-0.76-0.01-1.05l0,0c0.29-0.29,0.76-0.3,1.06-0.01
			C409.38,36.52,409.38,36.99,409.09,37.28z M414.02,43.11c0.2,0.22,0.4,0.43,0.6,0.64c0.21,0.22,0.36,0.48,0.46,0.74
			c0.1,0.26,0.16,0.53,0.2,0.78c0.01,0.12,0.02,0.25,0.04,0.36c0.02,0.11,0.09,0.19,0.18,0.24c0.19,0.11,0.38-0.02,0.55-0.07
			c0.17-0.06,0.31-0.12,0.43-0.16c0.24-0.09,0.38-0.14,0.38-0.14s-0.14,0.06-0.37,0.16c-0.12,0.05-0.26,0.11-0.43,0.18
			c-0.08,0.03-0.17,0.07-0.26,0.11c-0.1,0.04-0.22,0.03-0.33-0.02c-0.11-0.05-0.2-0.15-0.23-0.28c-0.02-0.12-0.04-0.24-0.05-0.37
			c-0.04-0.24-0.11-0.5-0.22-0.75c-0.11-0.25-0.26-0.48-0.46-0.68c-0.21-0.2-0.41-0.41-0.62-0.62c-1.67-1.66-3.34-3.31-3.34-3.31
			l0.16-0.16l0.13-0.13c0,0,0.02,0.02,0.02,0.02C410.95,39.79,412.48,41.44,414.02,43.11z M408.91,33.12
			c-0.62-0.32-1.32-0.42-1.99-0.28l-4.23-4.17c0.23-0.47,0.16-1.06-0.24-1.45s-0.98-0.46-1.45-0.22l-1.09-1.07
			c0.23-0.47,0.16-1.06-0.24-1.45c-0.4-0.39-0.98-0.46-1.45-0.22l-4.39-4.33c-0.33-0.63-0.81-1.29-1.44-1.91
			c-0.16-0.16-0.32-0.29-0.48-0.43c0.16-0.31,0.29-0.63,0.39-0.96c0.21,0.01,0.42,0.03,0.64,0.03c0.58,0,1.13-0.06,1.63-0.17
			c0.26-0.05,0.5-0.12,0.73-0.2l6.17-0.04c0.01,0.03,0.01,0.06,0.02,0.09c0.05,0.11,0.11,0.22,0.19,0.31
			c0.23,0.28,0.59,0.46,0.98,0.46c0.18,0,0.34-0.04,0.49-0.1c0.15-0.07,0.29-0.16,0.4-0.27c0.11-0.12,0.21-0.25,0.27-0.41
			c0.01-0.03,0.01-0.06,0.02-0.09l1.53-0.01c0.17,0.5,0.64,0.86,1.19,0.85c0.56,0,1.02-0.37,1.18-0.87l5.95-0.04
			c0.38,0.57,0.95,0.99,1.62,1.19C414.81,23.17,412.59,28.61,408.91,33.12z M416,26.71c0,0.04-0.01,0.07-0.02,0.11l0,0
			c0,0.01,0,0.01,0,0.02c0,0.03-0.01,0.06-0.02,0.09v0c-0.16,0.38-0.59,0.56-0.98,0.41c-0.29-0.12-0.46-0.39-0.46-0.68
			c0-0.1,0.02-0.2,0.06-0.29c0.01-0.03,0.04-0.06,0.06-0.09l0,0c0.19-0.31,0.57-0.46,0.92-0.32c0.29,0.12,0.46,0.39,0.46,0.68
			C416.02,26.66,416,26.68,416,26.71z M418.37,14.53c0,0.41-0.33,0.75-0.74,0.75c-0.41,0-0.75-0.33-0.75-0.74v0
			c0-0.41,0.33-0.75,0.74-0.75C418.03,13.78,418.37,14.11,418.37,14.53L418.37,14.53z M429.54,15.24c-0.05,0.12-0.11,0.26-0.17,0.43
			c-0.03,0.08-0.07,0.17-0.11,0.27c-0.04,0.1-0.13,0.18-0.25,0.22c-0.11,0.04-0.25,0.03-0.36-0.03c-0.1-0.07-0.2-0.15-0.3-0.22
			c-0.21-0.14-0.43-0.27-0.69-0.37c-0.25-0.1-0.52-0.16-0.8-0.15c-0.29,0-0.58,0-0.88,0c-2.35,0.01-4.71,0.01-4.71,0.01l0-0.22v0
			l0-0.19c0,0,0.02,0,0.03,0c0.15,0.01,2.4,0.1,4.68,0.19c0.29,0.01,0.59,0.02,0.88,0.04c0.3,0.01,0.59,0.09,0.85,0.2
			c0.26,0.11,0.49,0.26,0.69,0.41c0.1,0.08,0.19,0.16,0.28,0.23c0.09,0.06,0.2,0.07,0.3,0.04c0.21-0.06,0.26-0.28,0.34-0.44
			c0.07-0.16,0.14-0.31,0.19-0.42c0.11-0.23,0.17-0.37,0.17-0.37S429.63,15,429.54,15.24z"/>
		<path class="st2" d="M387.62,18.43c0.01,0,0.01,0,0.02-0.01c0.08-0.03,0.16-0.07,0.23-0.1l0,0c0.01,0,0.01-0.01,0.02-0.01
			c0.42-0.19,0.81-0.45,1.16-0.8c0.34-0.34,0.6-0.74,0.79-1.16c0-0.01,0.01-0.01,0.01-0.02c0.03-0.08,0.07-0.15,0.1-0.23
			c0-0.01,0-0.01,0.01-0.02c0.16-0.44,0.25-0.9,0.25-1.38c0-0.48-0.1-0.94-0.27-1.38c0-0.01,0-0.01-0.01-0.02
			c-0.03-0.08-0.06-0.16-0.1-0.23c0-0.01-0.01-0.01-0.01-0.02c-0.2-0.42-0.46-0.82-0.8-1.15c-0.35-0.34-0.75-0.6-1.17-0.78
			c-0.01,0-0.01-0.01-0.02-0.01h0c-0.08-0.03-0.16-0.07-0.24-0.1c-0.01,0-0.01,0-0.02-0.01c-0.44-0.16-0.9-0.25-1.36-0.25
			c-0.48,0-0.95,0.09-1.41,0.26c-0.01,0-0.01,0-0.02,0.01c-0.08,0.03-0.15,0.07-0.23,0.1h0c-0.01,0-0.01,0.01-0.02,0.01
			c-0.42,0.19-0.81,0.45-1.16,0.8c-0.34,0.34-0.6,0.74-0.79,1.16c0,0.01-0.01,0.01-0.01,0.02c-0.03,0.08-0.07,0.15-0.1,0.23
			c0,0.01,0,0.01-0.01,0.02c-0.16,0.44-0.25,0.9-0.25,1.38c0,0.48,0.1,0.94,0.27,1.38c0,0.01,0,0.01,0.01,0.02
			c0.03,0.08,0.06,0.16,0.1,0.23l0,0c0,0.01,0.01,0.01,0.01,0.02c0.2,0.42,0.46,0.82,0.8,1.15c0.35,0.34,0.75,0.59,1.17,0.78
			c0.01,0,0.01,0.01,0.02,0.01h0c0.08,0.03,0.15,0.07,0.23,0.1c0.01,0,0.01,0,0.02,0.01C385.75,18.77,386.73,18.76,387.62,18.43z"/>
	</g>
</g>
<g>
	<path class="st1" d="M393.98,111.43c0-5.76-16.01-10.43-35.76-10.43c-19.75,0-35.76,4.67-35.76,10.43s16.01,10.43,35.76,10.43
		C377.96,121.86,393.98,117.19,393.98,111.43L393.98,111.43z M393.98,111.43"/>
	<path class="st6" d="M358.21,142.72c19.74,0,35.76-4.66,35.76-10.43v-20.86c0,5.77-16.02,10.43-35.76,10.43
		c-19.74,0-35.76-4.66-35.76-10.43v20.86C322.45,138.06,338.47,142.72,358.21,142.72L358.21,142.72z M358.21,142.72"/>
	<path class="st4" d="M358.21,163.59c19.74,0,35.76-4.66,35.76-10.43v-20.86c0,5.77-16.02,10.43-35.76,10.43
		c-19.74,0-35.76-4.66-35.76-10.43v20.86C322.45,158.92,338.47,163.59,358.21,163.59L358.21,163.59z M358.21,163.59"/>
	<path class="st2" d="M393.98,153.15c0,5.77-16.02,10.43-35.76,10.43c-19.74,0-35.76-4.66-35.76-10.43v20.86
		c0,5.77,16.02,10.43,35.76,10.43c19.74,0,35.76-4.66,35.76-10.43V153.15z M393.98,153.15"/>
</g>
<g>
	<path class="st2" d="M79.56,41.8C76.79,28.3,64.88,18,50.23,18c-11.5,0-21.42,6.35-26.18,15.86c-12.29,1.59-21.41,11.5-21.41,23.8
		c0,13.09,10.71,23.8,23.8,23.8h51.54c11.11,0,19.83-8.73,19.83-19.83C97.79,51.3,89.47,42.59,79.56,41.8L79.56,41.8z M58.14,53.68
		v15.86H42.28V53.68H30.4l19.83-19.83l19.83,19.83H58.14z M58.14,53.68"/>
</g>
</svg>
